<?xml version="1.0" encoding="utf-8"?>
<!-- Generator: Adobe Illustrator 23.0.6, SVG Export Plug-In . SVG Version: 6.00 Build 0)  -->
<svg version="1.1" id="Layer_1" xmlns="http://www.w3.org/2000/svg" xmlns:xlink="http://www.w3.org/1999/xlink" x="0px" y="0px"
	 viewBox="0 0 614.1 791.8" style="enable-background:new 0 0 614.1 791.8;" xml:space="preserve">
<style type="text/css">
	.st0{fill:#F4BDC0;}
	.st1{fill:#FFFFFF;}
	.st2{font-family:'MyanmarMN-Bold';}
	.st3{font-size:13px;}
	.st4{fill:#EFABAE;}
	.st5{font-family:'LaoMN-Bold';}
	.st6{font-size:16.5672px;}
</style>
<rect x="-3.8" class="st0" width="618" height="80.3"/>
<g>
	<path class="st1" d="M33.7,66.8c-1.5,0-2.7-0.2-3.8-0.5c-1.1-0.3-2-0.8-2.8-1.4c-0.8-0.6-1.4-1.3-1.8-2.2c-0.5-0.8-0.8-1.7-0.9-2.7
		h4.1c0.1,0.6,0.4,1.2,0.6,1.7c0.3,0.5,0.6,1,1,1.4c0.4,0.4,0.9,0.7,1.5,0.9c0.6,0.2,1.2,0.3,2,0.3c0.5,0,1-0.1,1.5-0.2
		s0.9-0.3,1.3-0.5s0.7-0.5,1-1c0.2-0.4,0.4-0.9,0.4-1.4c0-0.7-0.2-1.4-0.5-1.9c-0.4-0.6-0.9-1.1-1.5-1.5s-1.3-0.9-2.1-1.3
		s-1.6-0.8-2.4-1.2c-0.8-0.4-1.6-0.8-2.4-1.3s-1.5-0.9-2.1-1.5s-1.1-1.2-1.5-1.8c-0.4-0.7-0.5-1.5-0.5-2.3c0-1,0.2-1.9,0.6-2.7
		c0.4-0.8,1-1.5,1.8-2.1s1.8-1.1,2.9-1.4c1.2-0.3,2.5-0.5,4-0.5c1.2,0,2.3,0.2,3.3,0.5s1.9,0.8,2.6,1.4s1.4,1.3,1.9,2.1
		c0.5,0.8,0.9,1.7,1.2,2.6h-3.8c-0.2-0.6-0.5-1.1-0.8-1.7s-0.6-1-1.1-1.4c-0.4-0.4-0.9-0.7-1.5-1c-0.6-0.2-1.3-0.3-2.1-0.3
		c-0.8,0-1.4,0.1-2,0.3c-0.5,0.2-1,0.5-1.3,0.8c-0.3,0.3-0.6,0.7-0.7,1s-0.2,0.8-0.2,1.1c0,0.7,0.2,1.2,0.6,1.8s0.9,1,1.5,1.5
		s1.3,0.9,2.1,1.3s1.6,0.8,2.5,1.2s1.7,0.9,2.5,1.3c0.8,0.5,1.5,1,2.2,1.5s1.1,1.2,1.5,1.8c0.4,0.7,0.6,1.4,0.6,2.3
		c0,1-0.2,1.9-0.6,2.8c-0.4,0.8-1,1.6-1.8,2.2c-0.8,0.6-1.8,1.1-3,1.5C36.6,66.6,35.3,66.8,33.7,66.8z"/>
	<path class="st1" d="M64,66.4h-5.6v-1.5c-0.3,0.3-0.6,0.5-0.9,0.7c-0.3,0.2-0.6,0.4-1,0.6c-0.4,0.2-0.8,0.3-1.2,0.4
		c-0.5,0.1-1,0.1-1.6,0.1c-0.8,0-1.6-0.1-2.3-0.4s-1.2-0.6-1.7-1s-0.8-0.9-1.1-1.5c-0.2-0.6-0.4-1.2-0.4-1.9c0-0.7,0.1-1.3,0.4-1.9
		s0.6-1.1,1.1-1.5c0.5-0.5,1-0.9,1.6-1.2s1.3-0.7,2-1c0.7-0.3,1.5-0.6,2.2-0.8s1.5-0.5,2.2-0.7l0.6-0.1v-1.8c0-0.6-0.1-1.1-0.2-1.5
		s-0.3-0.7-0.5-1s-0.5-0.4-0.8-0.5s-0.6-0.2-1-0.2c-0.4,0-0.8,0.1-1.1,0.2c-0.3,0.1-0.5,0.3-0.7,0.5c-0.2,0.2-0.3,0.4-0.4,0.7
		c-0.1,0.3-0.1,0.5-0.1,0.8c0,0.3,0,0.7-0.1,1s-0.2,0.6-0.4,0.8s-0.4,0.4-0.8,0.6c-0.3,0.2-0.7,0.2-1.2,0.2c-0.4,0-0.7-0.1-1.1-0.2
		c-0.3-0.1-0.6-0.3-0.8-0.5c-0.2-0.2-0.4-0.5-0.5-0.8s-0.2-0.6-0.2-0.9c0-0.6,0.2-1.2,0.7-1.8s1-1,1.8-1.4s1.6-0.7,2.5-0.9
		s2-0.3,3-0.3c1.3,0,2.4,0.1,3.4,0.4s1.7,0.6,2.3,1c0.6,0.4,1.1,1,1.4,1.6c0.3,0.6,0.4,1.3,0.4,2.1L64,66.4L64,66.4z M58.5,56.9
		c-0.5,0.2-1.1,0.5-1.6,0.8s-1,0.6-1.5,1s-0.8,0.7-1.1,1.1c-0.3,0.4-0.4,0.8-0.4,1.3c0,0.3,0,0.7,0.1,1s0.2,0.6,0.4,0.8
		s0.3,0.4,0.5,0.5c0.2,0.1,0.4,0.2,0.6,0.2c0.4,0,0.9-0.1,1.4-0.4c0.5-0.3,1-0.6,1.5-1L58.5,56.9L58.5,56.9z"/>
	<path class="st1" d="M93.6,53.9c0-0.4-0.1-0.8-0.2-1.2s-0.2-0.7-0.4-1s-0.4-0.5-0.6-0.7c-0.2-0.2-0.5-0.2-0.8-0.2
		c-0.3,0-0.7,0-1,0.2s-0.7,0.2-1,0.4c-0.3,0.2-0.7,0.4-1,0.6s-0.6,0.5-0.8,0.8v13.4h-5.5V53.9c0-0.4-0.1-0.8-0.2-1.2s-0.2-0.7-0.4-1
		c-0.2-0.3-0.4-0.5-0.6-0.7s-0.5-0.2-0.7-0.2c-0.3,0-0.6,0-0.9,0.2s-0.7,0.2-1,0.4c-0.3,0.2-0.7,0.4-1,0.6s-0.6,0.5-0.8,0.8v13.4H71
		V48.1h5.5v1.6c0.9-0.6,1.8-1.1,2.7-1.4s1.8-0.5,2.7-0.5c0.5,0,1,0,1.4,0.2s1,0.3,1.4,0.5c0.4,0.2,0.9,0.4,1.2,0.7s0.7,0.6,1,1
		c0.4-0.3,0.9-0.7,1.4-0.9s1-0.5,1.6-0.7s1.1-0.4,1.7-0.5c0.6-0.1,1.2-0.2,1.7-0.2c0.8,0,1.5,0.2,2.2,0.5s1.3,0.7,1.8,1.2
		c0.5,0.5,0.9,1.1,1.2,1.8c0.3,0.7,0.5,1.5,0.5,2.3v12.9h-5.6L93.6,53.9L93.6,53.9z"/>
	<path class="st1" d="M120.2,66.4h-5.6v-1.5c-0.3,0.3-0.6,0.5-0.9,0.7c-0.3,0.2-0.6,0.4-1,0.6c-0.4,0.2-0.8,0.3-1.2,0.4
		c-0.5,0.1-1,0.1-1.6,0.1c-0.8,0-1.6-0.1-2.3-0.4s-1.2-0.6-1.7-1s-0.8-0.9-1.1-1.5c-0.2-0.6-0.4-1.2-0.4-1.9c0-0.7,0.1-1.3,0.4-1.9
		c0.3-0.6,0.6-1.1,1.1-1.5c0.5-0.5,1-0.9,1.6-1.2s1.3-0.7,2-1c0.7-0.3,1.4-0.6,2.2-0.8s1.5-0.5,2.2-0.7l0.6-0.1v-1.8
		c0-0.6-0.1-1.1-0.2-1.5s-0.3-0.7-0.5-1s-0.5-0.4-0.8-0.5c-0.3-0.1-0.6-0.2-1-0.2c-0.4,0-0.8,0.1-1.1,0.2c-0.3,0.1-0.5,0.3-0.7,0.5
		c-0.2,0.2-0.3,0.4-0.4,0.7s-0.1,0.5-0.1,0.8c0,0.3,0,0.7-0.1,1s-0.2,0.6-0.4,0.8s-0.4,0.4-0.8,0.6c-0.3,0.2-0.7,0.2-1.2,0.2
		c-0.4,0-0.7-0.1-1.1-0.2c-0.3-0.1-0.6-0.3-0.8-0.5c-0.2-0.2-0.4-0.5-0.5-0.8s-0.2-0.6-0.2-0.9c0-0.6,0.2-1.2,0.7-1.8s1-1,1.8-1.4
		s1.6-0.7,2.5-0.9s2-0.3,3-0.3c1.3,0,2.4,0.1,3.4,0.4s1.7,0.6,2.3,1c0.6,0.4,1.1,1,1.4,1.6c0.3,0.6,0.4,1.3,0.4,2.1L120.2,66.4
		L120.2,66.4z M114.6,56.9c-0.5,0.2-1.1,0.5-1.6,0.8s-1,0.6-1.5,1s-0.8,0.7-1.1,1.1c-0.3,0.4-0.4,0.8-0.4,1.3c0,0.3,0.1,0.7,0.1,1
		s0.2,0.6,0.4,0.8c0.2,0.2,0.3,0.4,0.5,0.5c0.2,0.1,0.4,0.2,0.6,0.2c0.4,0,0.9-0.1,1.4-0.4s1-0.6,1.5-1L114.6,56.9L114.6,56.9z"/>
	<path class="st1" d="M138.4,53.8c0-0.5-0.1-0.9-0.1-1.2c-0.1-0.4-0.2-0.7-0.4-0.9s-0.4-0.4-0.6-0.5s-0.4-0.2-0.7-0.2
		s-0.5,0-0.8,0.1c-0.3,0.1-0.6,0.2-1,0.4s-0.7,0.4-1,0.6c-0.4,0.2-0.7,0.5-1,0.8v13.4h-5.6V48.1h5.6v1.4c0.9-0.6,1.8-1.1,2.8-1.4
		c1-0.3,2-0.4,2.9-0.4c0.8,0,1.5,0.2,2.1,0.4c0.7,0.3,1.3,0.7,1.8,1.2c0.5,0.5,0.9,1.1,1.2,1.8c0.3,0.7,0.4,1.4,0.4,2.2v13.1h-5.5
		L138.4,53.8L138.4,53.8z"/>
	<path class="st1" d="M149,50.3v-1.8c0.7,0,1.3-0.2,1.9-0.5c0.6-0.3,1.1-0.8,1.6-1.3c0.5-0.6,0.9-1.2,1.2-2c0.3-0.8,0.6-1.6,0.8-2.4
		h3.1v5.8h4.5v2.2h-4.5v11.8c0,0.4,0.1,0.7,0.3,1s0.4,0.4,0.8,0.4c0.2,0,0.4-0.1,0.6-0.2c0.2-0.1,0.4-0.3,0.6-0.5
		c0.2-0.2,0.4-0.3,0.6-0.5s0.3-0.3,0.4-0.4l1.9,1.5c-0.3,0.5-0.6,0.9-1,1.3c-0.4,0.4-0.8,0.8-1.3,1.1s-1,0.5-1.6,0.7
		s-1.3,0.3-2.2,0.3c-0.8,0-1.4-0.1-2-0.3s-1.1-0.5-1.4-0.9s-0.7-0.9-0.9-1.4S152,63,152,62.3v-12H149z"/>
	<path class="st1" d="M178.4,53.8c0-0.9-0.1-1.7-0.5-2.2c-0.3-0.5-0.7-0.7-1.2-0.7c-0.2,0-0.5,0-0.8,0.1c-0.3,0.1-0.7,0.2-1,0.4
		c-0.4,0.2-0.7,0.4-1.1,0.6s-0.7,0.5-1,0.8v13.4h-5.6V40.7l5.6-1.5v10.3c0.9-0.6,1.8-1.1,2.9-1.4s2.1-0.5,3.1-0.5
		c0.7,0,1.4,0.2,2.1,0.4c0.6,0.3,1.2,0.7,1.7,1.2c0.5,0.5,0.9,1.1,1.1,1.8s0.4,1.4,0.4,2.2v13.1h-5.6L178.4,53.8L178.4,53.8z"/>
	<path class="st1" d="M204.9,66.4h-5.6v-1.5c-0.3,0.3-0.6,0.5-0.9,0.7c-0.3,0.2-0.6,0.4-1,0.6c-0.4,0.2-0.8,0.3-1.2,0.4
		c-0.4,0.1-1,0.1-1.6,0.1c-0.8,0-1.6-0.1-2.3-0.4s-1.2-0.6-1.7-1s-0.8-0.9-1.1-1.5c-0.2-0.6-0.4-1.2-0.4-1.9c0-0.7,0.1-1.3,0.4-1.9
		c0.3-0.6,0.6-1.1,1.1-1.5c0.5-0.5,1-0.9,1.6-1.2c0.6-0.4,1.3-0.7,2-1c0.7-0.3,1.4-0.6,2.2-0.8c0.8-0.2,1.5-0.5,2.2-0.7l0.6-0.1
		v-1.8c0-0.6-0.1-1.1-0.2-1.5s-0.3-0.7-0.5-1s-0.5-0.4-0.8-0.5s-0.6-0.2-1-0.2c-0.4,0-0.8,0.1-1.1,0.2c-0.3,0.1-0.5,0.3-0.7,0.5
		c-0.2,0.2-0.3,0.4-0.4,0.7s-0.1,0.5-0.1,0.8c0,0.3,0,0.7-0.1,1s-0.2,0.6-0.4,0.8s-0.4,0.4-0.8,0.6c-0.3,0.2-0.7,0.2-1.2,0.2
		c-0.4,0-0.7-0.1-1.1-0.2c-0.3-0.1-0.6-0.3-0.8-0.5c-0.2-0.2-0.4-0.5-0.5-0.8c-0.1-0.3-0.2-0.6-0.2-0.9c0-0.6,0.2-1.2,0.6-1.8
		c0.4-0.5,1-1,1.8-1.4c0.7-0.4,1.6-0.7,2.5-0.9s2-0.3,3-0.3c1.3,0,2.4,0.1,3.4,0.4s1.7,0.6,2.3,1c0.6,0.4,1.1,1,1.4,1.6
		s0.4,1.3,0.4,2.1L204.9,66.4L204.9,66.4z M199.3,56.9c-0.5,0.2-1.1,0.5-1.6,0.8c-0.5,0.3-1,0.6-1.5,1s-0.8,0.7-1.1,1.1
		c-0.3,0.4-0.4,0.8-0.4,1.3c0,0.3,0,0.7,0.1,1s0.2,0.6,0.4,0.8s0.3,0.4,0.5,0.5c0.2,0.1,0.4,0.2,0.6,0.2c0.4,0,0.9-0.1,1.4-0.4
		s1-0.6,1.5-1L199.3,56.9L199.3,56.9z"/>
	<path class="st1" d="M232.9,66.8c-1.5,0-2.7-0.2-3.8-0.5c-1.1-0.3-2-0.8-2.8-1.4s-1.4-1.3-1.8-2.2c-0.4-0.8-0.8-1.7-0.9-2.7h4.1
		c0.1,0.6,0.4,1.2,0.6,1.7c0.3,0.5,0.6,1,1,1.4c0.4,0.4,0.9,0.7,1.5,0.9s1.2,0.3,2,0.3c0.5,0,1-0.1,1.5-0.2s0.9-0.3,1.3-0.5
		s0.7-0.5,0.9-1c0.2-0.4,0.4-0.9,0.4-1.4c0-0.7-0.2-1.4-0.6-1.9c-0.4-0.6-0.9-1.1-1.5-1.5s-1.3-0.9-2.1-1.3s-1.6-0.8-2.4-1.2
		s-1.6-0.8-2.4-1.3s-1.5-0.9-2.1-1.5s-1.1-1.2-1.5-1.8s-0.6-1.5-0.6-2.3c0-1,0.2-1.9,0.6-2.7c0.4-0.8,1-1.5,1.8-2.1s1.8-1.1,2.9-1.4
		c1.2-0.3,2.5-0.5,4-0.5c1.2,0,2.3,0.2,3.3,0.5s1.9,0.8,2.6,1.4s1.4,1.3,1.9,2.1c0.5,0.8,0.9,1.7,1.2,2.6h-3.8
		c-0.2-0.6-0.5-1.1-0.8-1.7s-0.6-1-1.1-1.4s-0.9-0.7-1.5-1s-1.3-0.3-2.1-0.3c-0.8,0-1.4,0.1-2,0.3c-0.5,0.2-1,0.5-1.3,0.8
		c-0.3,0.3-0.6,0.7-0.7,1s-0.2,0.8-0.2,1.1c0,0.7,0.2,1.2,0.6,1.8s0.9,1,1.5,1.5s1.3,0.9,2.1,1.3c0.8,0.4,1.6,0.8,2.4,1.2
		s1.6,0.9,2.5,1.3c0.8,0.5,1.5,1,2.1,1.5s1.1,1.2,1.5,1.8c0.4,0.7,0.6,1.4,0.6,2.3c0,1-0.2,1.9-0.6,2.8c-0.4,0.8-1,1.6-1.8,2.2
		c-0.8,0.6-1.8,1.1-3,1.5C235.8,66.6,234.5,66.8,232.9,66.8z"/>
	<path class="st1" d="M257.2,49.9c-0.6,0-1.1,0.2-1.6,0.4c-0.5,0.3-0.9,0.7-1.2,1.2s-0.6,1.1-0.8,1.8s-0.3,1.4-0.3,2.1
		c0,1,0.1,2,0.4,2.9c0.2,0.9,0.6,1.8,1,2.5s0.9,1.3,1.5,1.7c0.6,0.4,1.3,0.6,2,0.6c0.6,0,1.2-0.1,1.7-0.4c0.5-0.2,0.9-0.6,1.4-1
		s0.8-0.9,1.1-1.5c0.3-0.6,0.6-1.2,0.9-1.8l2.6,0.7c-0.3,1.2-0.7,2.3-1.3,3.2c-0.5,0.9-1.2,1.7-2,2.4c-0.8,0.6-1.6,1.1-2.6,1.5
		c-1,0.3-2,0.5-3.1,0.5c-1.3,0-2.4-0.2-3.6-0.7s-2.1-1.1-2.9-2c-0.8-0.8-1.5-1.8-1.9-2.9s-0.7-2.3-0.7-3.5c0-1.3,0.3-2.6,0.8-3.8
		c0.5-1.2,1.2-2.2,2.1-3.2c0.9-0.9,1.9-1.6,3.1-2.1s2.4-0.8,3.8-0.8c1.1,0,2.1,0.1,3,0.3c0.9,0.2,1.7,0.5,2.3,1
		c0.6,0.4,1.1,0.9,1.5,1.5c0.4,0.6,0.5,1.2,0.5,1.8c0,0.3-0.1,0.6-0.3,0.9s-0.4,0.5-0.7,0.7c-0.3,0.2-0.6,0.4-1,0.5
		c-0.4,0.1-0.8,0.2-1.1,0.2c-0.4,0-0.8-0.1-1.2-0.2c-0.3-0.1-0.6-0.3-0.8-0.5c-0.2-0.2-0.4-0.4-0.5-0.7c-0.1-0.3-0.2-0.5-0.2-0.8
		s0-0.5,0-0.8s-0.1-0.5-0.2-0.8c-0.1-0.2-0.3-0.4-0.5-0.6C258,50,257.6,49.9,257.2,49.9z"/>
	<path class="st1" d="M276.8,48.1V61c0,0.4,0.1,0.7,0.2,1c0.1,0.3,0.3,0.6,0.6,0.8c0.2,0.2,0.5,0.4,0.9,0.5s0.7,0.2,1,0.2
		c0.2,0,0.4-0.1,0.7-0.2s0.5-0.3,0.8-0.5c0.3-0.2,0.5-0.4,0.8-0.7s0.5-0.6,0.7-0.9V48.1h5.6v18.3h-5.6v-1.7
		c-0.7,0.6-1.5,1.1-2.3,1.5c-0.8,0.4-1.6,0.6-2.4,0.6c-0.9,0-1.8-0.2-2.5-0.4c-0.8-0.3-1.5-0.7-2-1.2c-0.6-0.5-1-1.1-1.4-1.8
		s-0.5-1.5-0.5-2.2V48.1H276.8z"/>
	<path class="st1" d="M300.1,66.4h-5.5V40.7l5.5-1.5V66.4z"/>
	<path class="st1" d="M312.2,66.4h-5.5V40.7l5.5-1.5V66.4z"/>
	<path class="st1" d="M316.5,47.7h5.9l5.8,11.3l5.1-11.3h3.9L328,68.1c-0.3,0.7-0.8,1.4-1.3,1.9s-1.1,1.1-1.7,1.5s-1.2,0.7-1.9,1
		c-0.7,0.2-1.3,0.3-2,0.3c-0.5,0-0.9-0.1-1.4-0.2s-0.8-0.3-1.1-0.5c-0.3-0.2-0.6-0.5-0.8-0.8c-0.2-0.3-0.3-0.6-0.3-0.9
		c0-0.2,0-0.5,0.1-0.7s0.2-0.5,0.4-0.7c0.2-0.2,0.5-0.4,0.8-0.5c0.3-0.1,0.7-0.2,1.2-0.2c0.3,0,0.6,0.1,0.8,0.2
		c0.2,0.1,0.4,0.2,0.5,0.4c0.2,0.1,0.3,0.2,0.5,0.4c0.2,0.1,0.4,0.2,0.7,0.2c0.2,0,0.4-0.1,0.6-0.3s0.4-0.5,0.6-0.8s0.4-0.6,0.5-1
		c0.2-0.3,0.3-0.7,0.4-0.9l0.6-1.5L316.5,47.7z"/>
</g>
<text transform="matrix(1 0 0 1 559.2361 72.9933)" class="st2 st3"> </text>
<polyline class="st1" points="294.5,41.1 294.5,40.7 300.1,39.1 300.1,43.6 "/>
<path class="st1" d="M294.5,41.2"/>
<rect x="-3.8" y="80.3" class="st4" width="618" height="716.7"/>
<path class="st1" d="M294.6,77.7v2.5h5.6v-3V39.1c-1.9,0-3.8,0.1-5.6,0.1c0,0.7,0,1.4,0,2.1C294.5,53.5,294.5,65.6,294.6,77.7z"/>
<path class="st1" d="M306.8,77.7v2.5h5.6v-3V39.1c-1.9,0-3.8,0.1-5.6,0.1c0,0.7,0,1.4,0,2.1C306.8,53.5,306.8,65.6,306.8,77.7z"/>
<rect x="306.8" y="80.3" class="st0" width="5.6" height="716.7"/>
<rect x="-3.8" y="80.3" class="st0" width="301.1" height="716.7"/>
<rect x="-7.5" y="80.3" class="st4" width="307.7" height="5.8"/>
<rect x="294.6" y="80.3" class="st0" width="5.6" height="716.7"/>
<text transform="matrix(1 0 0 1 146.7425 106.8184)" class="st1 st5 st6">Graphic Designer</text>
</svg>
