<?xml version="1.0" encoding="utf-8"?>
<!-- Generator: Adobe Illustrator 23.0.6, SVG Export Plug-In . SVG Version: 6.00 Build 0)  -->
<svg version="1.1" id="Layer_1" xmlns="http://www.w3.org/2000/svg" xmlns:xlink="http://www.w3.org/1999/xlink" x="0px" y="0px"
	 viewBox="0 0 229 140.72" style="enable-background:new 0 0 229 140.72;" xml:space="preserve">
<style type="text/css">
	.st0{fill:#D18097;}
</style>
<g>
	<g>
		<path class="st0" d="M193.85,123.97c-13.65,4.33-42.39,6.5-76.87,6.5c-44.54,0-78.29-4.23-78.29-10.34
			c0-2.36,6.47-4.03,12.93-5.21c12.93-2.36,34.48-3.65,63.93-5.31c44.54-2.46,65.37-4.14,65.37-8.66c0-5.22-28.01-8.86-65.37-8.86
			c-32.32,0-63.21,2.75-73.27,8.07l-28.01-1.18C26.48,92.3,66.7,88.36,115.55,88.36c45.25,0,95.53,3.63,95.53,12.78
			c0,2.27-2.87,4.43-15.09,6.5c-18.67,3.24-45.97,4.33-75.42,5.9c-28.73,1.57-51.72,2.85-51.72,6.79c0,2.95,16.53,6.39,49.56,6.39
			c20.84,0,40.94-1.38,51-4.52L193.85,123.97z"/>
	</g>
	<g>
		<path class="st0" d="M175.35,66.05c-10.44-4.45-31.32-6.39-52.95-6.39c-34.3,0-51.45,4.87-51.45,9.04c0,5.55,23.86,7.36,53.69,9.6
			c30.58,2.22,58.9,3.75,78.31,8.34c12.67,2.93,15.65,5.99,15.65,9.18c0,12.94-52.2,18.09-99.18,18.09
			c-50.71,0-92.47-5.57-105.15-15.03l29.08-1.67c10.44,7.51,42.51,11.41,76.06,11.41c38.79,0,67.86-5.15,67.86-12.51
			c0-6.41-21.63-8.77-67.86-12.25c-30.57-2.36-52.95-4.17-66.37-7.51c-6.71-1.67-13.42-4.03-13.42-7.36
			c0-8.62,35.05-14.61,81.28-14.61c35.79,0,65.61,3.06,79.79,9.19L175.35,66.05z"/>
	</g>
	<path class="st0" d="M40.66,66.43h164.66C194.5,30.04,160.8,4.93,122.87,4.98C85.02,5.04,51.45,30.12,40.66,66.43z"/>
</g>
</svg>
