<?xml version="1.0" encoding="utf-8"?>
<!-- Generator: Adobe Illustrator 23.1.1, SVG Export Plug-In . SVG Version: 6.00 Build 0)  -->
<svg version="1.1" id="Layer_1" xmlns="http://www.w3.org/2000/svg" xmlns:xlink="http://www.w3.org/1999/xlink" x="0px" y="0px"
	 viewBox="0 0 229 140.7" style="enable-background:new 0 0 229 140.7;" xml:space="preserve">
<style type="text/css">
	.st0{fill:#FFF8C5;}
</style>
<g>
	<g>
		<path class="st0" d="M193.9,124c-13.6,4.3-42.4,6.5-76.9,6.5c-44.5,0-78.3-4.2-78.3-10.3c0-2.4,6.5-4,12.9-5.2
			c12.9-2.4,34.5-3.7,63.9-5.3c44.5-2.5,65.4-4.1,65.4-8.7c0-5.2-28-8.9-65.4-8.9c-32.3,0-63.2,2.8-73.3,8.1l-28-1.2
			c12.2-6.7,52.4-10.6,101.3-10.6c45.2,0,95.5,3.6,95.5,12.8c0,2.3-2.9,4.4-15.1,6.5c-18.7,3.2-46,4.3-75.4,5.9
			c-28.7,1.6-51.7,2.8-51.7,6.8c0,2.9,16.5,6.4,49.6,6.4c20.8,0,40.9-1.4,51-4.5L193.9,124z"/>
	</g>
	<g>
		<path class="st0" d="M175.4,66.1c-10.4-4.5-31.3-6.4-52.9-6.4c-34.3,0-51.4,4.9-51.4,9c0,5.6,23.9,7.4,53.7,9.6
			c30.6,2.2,58.9,3.8,78.3,8.3c12.7,2.9,15.6,6,15.6,9.2c0,12.9-52.2,18.1-99.2,18.1c-50.7,0-92.5-5.6-105.2-15l29.1-1.7
			c10.4,7.5,42.5,11.4,76.1,11.4c38.8,0,67.9-5.2,67.9-12.5c0-6.4-21.6-8.8-67.9-12.2c-30.6-2.4-52.9-4.2-66.4-7.5
			c-6.7-1.7-13.4-4-13.4-7.4c0-8.6,35-14.6,81.3-14.6c35.8,0,65.6,3.1,79.8,9.2L175.4,66.1z"/>
	</g>
	<path class="st0" d="M40.7,66.4h164.7C194.5,30,160.8,4.9,122.9,5C85,5,51.5,30.1,40.7,66.4z"/>
</g>
</svg>
