<?xml version="1.0" encoding="utf-8"?>
<!-- Generator: Adobe Illustrator 23.1.1, SVG Export Plug-In . SVG Version: 6.00 Build 0)  -->
<svg version="1.1" id="Layer_1" xmlns="http://www.w3.org/2000/svg" xmlns:xlink="http://www.w3.org/1999/xlink" x="0px" y="0px"
	 viewBox="0 0 2560 2426" style="enable-background:new 0 0 2560 2426;" xml:space="preserve">
<style type="text/css">
	.st0{fill:url(#SVGID_1_);}
	.st1{fill:#FFFCE6;}
</style>
<linearGradient id="SVGID_1_" gradientUnits="userSpaceOnUse" x1="1931.472" y1="1288" x2="4015.7117" y2="1288" gradientTransform="matrix(0 -1 -1 0 2550.5 4203.5)">
	<stop  offset="0" style="stop-color:#FFFCE6"/>
	<stop  offset="0.2301" style="stop-color:#FBCEB6"/>
	<stop  offset="0.5059" style="stop-color:#F69A80"/>
</linearGradient>
<polygon class="st0" points="2550,341.8 2550,2426 -25,2426 -25,341.8 "/>
<g>
	<path class="st1" d="M2218.3,2207.7c-165.3,68.8-513.4,103.3-931,103.3c-539.4,0-948.3-67.3-948.3-164.3c0-37.5,78.3-64,156.6-82.7
		c156.6-37.5,417.6-57.9,774.3-84.4c539.4-39.1,791.7-65.8,791.7-137.6c0-82.9-339.3-140.7-791.7-140.7
		c-391.5,0-765.6,43.7-887.4,128.2l-339.3-18.7C191,1704.5,678.2,1642,1269.9,1642c548.1,0,1157.1,57.7,1157.1,203.1
		c0,36-34.7,70.3-182.8,103.3c-226.2,51.4-556.8,68.8-913.4,93.8c-348,25-626.4,45.4-626.4,107.9c0,46.9,200.2,101.6,600.3,101.6
		c252.4,0,495.8-21.9,617.8-71.9L2218.3,2207.7z"/>
</g>
<g>
	<path class="st1" d="M1994.1,1287.5c-126.4-70.7-379.3-101.6-641.3-101.6c-415.5,0-623.2,77.4-623.2,143.7
		c0,88.2,289,117,650.3,152.5c370.4,35.3,713.4,59.7,948.5,132.4c153.4,46.5,189.6,95.1,189.6,145.9
		c0,205.6-632.2,287.4-1201.3,287.4c-614.2,0-1120-88.4-1273.5-238.8l352.2-26.5c126.5,119.3,514.8,181.2,921.3,181.2
		c469.8,0,821.9-81.8,821.9-198.8c0-101.9-262-139.4-821.9-194.7c-370.3-37.5-641.3-66.3-803.9-119.3c-81.3-26.5-162.6-64-162.6-117
		c0-137,424.5-232.1,984.5-232.1c433.4,0,794.7,48.6,966.4,146L1994.1,1287.5z"/>
</g>
<path class="st1" d="M362.8,1248h1994.4c-131-440.8-539.2-744.9-998.6-744.2C900.1,504.4,493.5,808.2,362.8,1248z"/>
<path class="st1" d="M207.6,1741.5c-109,20.9-163.8,43.9-164.3,69.2c-0.5,21.4,37.8,44.3,114.9,68.8"/>
<rect x="10" y="995" class="st1" width="2560" height="307"/>
</svg>
