<?xml version="1.0" encoding="utf-8"?>
<!-- Generator: Adobe Illustrator 23.0.6, SVG Export Plug-In . SVG Version: 6.00 Build 0)  -->
<svg version="1.1" id="Layer_1" xmlns="http://www.w3.org/2000/svg" xmlns:xlink="http://www.w3.org/1999/xlink" x="0px" y="0px"
	 viewBox="0 0 390 220" style="enable-background:new 0 0 390 220;" xml:space="preserve">
<style type="text/css">
	.st0{fill:#B59AA7;}
	.st1{fill:#C8E9F0;}
	.st2{opacity:0.53;fill:#72CBCA;}
	.st3{fill:#F8A382;}
	.st4{opacity:0.6;fill:#F8A382;}
	.st5{opacity:0.7;fill:#C8E9F0;}
	.st6{fill:none;stroke:#72CBCA;stroke-miterlimit:10;}
	.st7{opacity:0.6;fill:#B59AA7;}
	.st8{opacity:0.75;fill:#ED968D;stroke:#FFFFFF;stroke-miterlimit:10;}
	.st9{fill:none;stroke:#FFFFFF;stroke-miterlimit:10;}
	.st10{opacity:0.75;fill:#ED968D;}
</style>
<rect x="-1.98" y="-1.12" class="st0" width="391.4" height="223.01"/>
<rect x="22.58" y="21.24" class="st1" width="370.22" height="63.54"/>
<rect x="333.31" y="-1.11" class="st1" width="59.5" height="220"/>
<rect y="0.38" class="st2" width="26.2" height="220"/>
<rect x="14.5" y="108.68" class="st3" width="349.82" height="81.12"/>
<rect x="26.2" y="15.7" class="st4" width="349.82" height="81.12"/>
<rect x="301.14" y="74.35" class="st5" width="64.34" height="145.65"/>
<polyline class="st6" points="-116.89,451.26 190.22,451.26 190.22,370.86 -116.89,370.86 -116.89,276.38 190.22,276.38 "/>
<rect x="70.63" y="123.37" class="st7" width="319.37" height="13.99"/>
<rect x="-1.98" y="31.45" class="st3" width="349.82" height="24.81"/>
<polyline class="st6" points="-112.11,455.63 195,455.63 195,375.22 -112.11,375.22 -112.11,280.75 195,280.75 "/>
<rect x="25.7" y="29.5" class="st8" width="78.92" height="62.71"/>
<polyline class="st8" points="105.06,29.45 223,29.45 203.37,62.23 105.06,62.23 "/>
<polyline class="st9" points="223.44,29.5 203.67,62.17 104.62,62.17 "/>
<path class="st9" d="M104.62,29.5"/>
<path class="st0" d="M104.62,29.5"/>
<polygon class="st10" points="25.9,91.22 33.76,109.38 144.72,109.38 144.72,150.8 16.1,150.8 34.27,176.87 206.05,176.87 
	223.2,165.18 223.2,91.22 104.82,91.22 "/>
<polyline class="st9" points="144.52,109.3 32.81,109.3 25.54,92.22 "/>
<polyline class="st9" points="104.62,165.9 223.44,165.9 223.44,92.22 104.62,92.22 104.62,29.5 223.44,29.5 212.96,46.79 
	25.7,46.79 "/>
<polyline class="st9" points="144.52,29.5 25.7,29.5 25.7,92.22 144.52,92.22 144.52,165.9 103.41,165.9 25.7,165.9 15.86,151.74 
	223.44,151.74 "/>
<polyline class="st9" points="223.44,165.9 206.48,176.62 33.25,176.62 15.86,151.74 "/>
</svg>
