<svg id="Layer_1" data-name="Layer 1" xmlns="http://www.w3.org/2000/svg" viewBox="0 0 394.79 223.11"><defs><style>.cls-1,.cls-12{fill:#b59aa7;}.cls-2,.cls-3,.cls-7,.cls-9{fill:#c8e9f0;}.cls-3{opacity:0.85;}.cls-4{fill:#72cbca;opacity:0.53;}.cls-10,.cls-11,.cls-12,.cls-4,.cls-6,.cls-7,.cls-9{isolation:isolate;}.cls-5,.cls-6,.cls-8{fill:#f8a382;}.cls-12,.cls-6{opacity:0.6;}.cls-7{opacity:0.35;}.cls-8{opacity:0.75;}.cls-9{opacity:0.48;}.cls-10,.cls-11{fill:#ed968d;opacity:0.8;}.cls-11,.cls-13,.cls-14{stroke:#fff;stroke-miterlimit:10;}.cls-11,.cls-14{stroke-width:0.25px;}.cls-13,.cls-14{fill:none;}.cls-15{font-size:18.71px;}.cls-15,.cls-16{fill:#fff;font-family:TrebuchetMS, Trebuchet MS;}.cls-16{font-size:22px;}</style></defs><title>newbusiness-card-frontdesign</title><rect class="cls-1" y="0.1" width="391.4" height="223.01"/><rect class="cls-2" x="24.56" y="22.46" width="370.22" height="63.54"/><rect class="cls-3" x="335.29" y="0.11" width="59.5" height="220"/><rect class="cls-4" x="1.98" y="1.6" width="26.2" height="220"/><rect class="cls-5" x="16.48" y="109.9" width="349.82" height="81.12"/><rect class="cls-6" x="28.18" y="16.92" width="349.82" height="81.12"/><rect class="cls-7" x="1.98" width="301.14" height="138.58"/><rect class="cls-8" y="29.92" width="349.82" height="59.77"/><rect class="cls-9" x="303.12" y="75.57" width="64.34" height="145.65"/><rect class="cls-10" x="27.68" y="30.72" width="78.92" height="62.71"/><polyline class="cls-11" points="107.04 30.67 224.98 30.67 205.35 63.45 107.04 63.45"/><rect class="cls-12" x="72.61" y="124.59" width="319.37" height="13.99"/><path class="cls-13" d="M104.62,29.5" transform="translate(1.98 1.22)"/><path class="cls-1" d="M104.62,29.5" transform="translate(1.98 1.22)"/><rect class="cls-4" x="149.09" y="92.44" width="245.7" height="26.32"/><polygon class="cls-10" points="27.88 92.44 35.74 110.6 146.7 110.6 146.7 152.02 18.08 152.02 36.25 178.09 208.03 178.09 225.18 166.4 225.18 92.44 106.8 92.44 27.88 92.44"/><polyline class="cls-14" points="146.5 110.52 34.79 110.52 27.52 93.44"/><polyline class="cls-14" points="106.6 167.12 225.42 167.12 225.42 93.44 106.6 93.44 106.6 30.72 225.42 30.72 214.94 48.01 27.68 48.01"/><polyline class="cls-14" points="146.5 30.72 27.68 30.72 27.68 93.44 146.5 93.44 146.5 167.12 105.39 167.12 27.68 167.12 17.84 152.96 225.42 152.96"/><polyline class="cls-14" points="225.42 167.37 208.46 178.09 35.23 178.09 17.84 153.21"/><text class="cls-15" transform="translate(156.57 112.46)">Graphic Designer</text><text class="cls-16" transform="translate(116.97 82.69)">Samantha Scully</text></svg>