<svg id="Layer_1" data-name="Layer 1" xmlns="http://www.w3.org/2000/svg" viewBox="0 0 395.29 227.44"><defs><style>.cls-1{fill:#887b8e;stroke:#f09cc3;opacity:0.46;}.cls-1,.cls-10,.cls-11,.cls-18,.cls-19{stroke-miterlimit:10;}.cls-1,.cls-13,.cls-16,.cls-3,.cls-4,.cls-5,.cls-6,.cls-7,.cls-8{isolation:isolate;}.cls-17,.cls-2,.cls-4,.cls-6,.cls-8{fill:#c8e9f0;}.cls-14,.cls-15,.cls-3,.cls-5,.cls-7,.cls-9{fill:#f8a382;}.cls-3{opacity:0.74;}.cls-16,.cls-4{opacity:0.61;}.cls-5{opacity:0.91;}.cls-6{opacity:0.38;}.cls-7{opacity:0.6;}.cls-8{opacity:0.35;}.cls-12,.cls-9{opacity:0.75;}.cls-10,.cls-11,.cls-18,.cls-19{fill:none;}.cls-10{stroke:#fdffff;stroke-width:0.5px;}.cls-11{stroke:#fff;stroke-width:0.25px;}.cls-13{opacity:0.8;}.cls-15,.cls-17,.cls-19{font-size:68.44px;font-family:Avenir-Black, Avenir;font-weight:800;}.cls-18,.cls-19{stroke:#ed968d;}</style></defs><title>newbusiness-card-backdesign</title><rect class="cls-1" x="0.5" y="3.93" width="391.4" height="223.01"/><rect class="cls-2" x="25.06" y="26.29" width="370.22" height="63.54"/><rect class="cls-2" x="292.81" y="3.94" width="102.48" height="220"/><rect class="cls-3" x="2.28" y="5.43" width="36.77" height="220"/><rect class="cls-4" x="95.42" y="110.26" width="299.86" height="113.68"/><rect class="cls-5" x="16.98" y="119.68" width="378.31" height="80.41"/><rect class="cls-6" x="28.68" y="25.21" width="366.61" height="94.47"/><rect class="cls-7" x="29.93" y="20.07" width="365.36" height="81.12"/><rect class="cls-8" x="2.57" y="3.16" width="314.52" height="138.58"/><rect class="cls-9" x="29.93" y="96.48" width="365.36" height="59.77"/><polyline class="cls-10" points="27.08 204.36 334.19 204.36 334.19 113.81 27.08 113.81 27.08 7.43 334.19 7.43"/><polyline class="cls-11" points="213.29 204 390.9 204 390.9 93.87 213.29 93.87 213.29 0.13 390.9 0.13 375.23 25.97 95.33 25.97"/><polyline class="cls-11" points="272.93 0.13 95.33 0.13 95.33 93.87 272.93 93.87 272.93 204 211.49 204 95.33 204 80.63 182.84 390.9 182.84"/><polyline class="cls-11" points="390.9 204.38 365.55 220.4 106.62 220.4 80.63 183.21"/><g class="cls-12"><g class="cls-13"><path class="cls-14" d="M163.47,108.65H112.89a7.38,7.38,0,0,1-7.36-7.36V50.71a7.38,7.38,0,0,1,7.36-7.36h50.58a7.38,7.38,0,0,1,7.36,7.36v50.58A7.38,7.38,0,0,1,163.47,108.65Z" transform="translate(2.23 5.05)"/><circle class="cls-14" cx="139.45" cy="81.05" r="17.61"/><circle class="cls-14" cx="160.94" cy="58.79" r="3.71"/></g><g class="cls-13"><rect class="cls-14" x="190.46" y="59.93" width="77.37" height="48.84" rx="12"/><polyline class="cls-14" points="193.26 64.48 229.15 92.44 264.81 64.48"/></g><g class="cls-13"><rect class="cls-14" x="282.32" y="46.6" width="68.87" height="68.87" rx="12"/><text class="cls-15" transform="translate(289.85 103.28)">in</text></g><g class="cls-13"><circle class="cls-14" cx="61.17" cy="81.05" r="32.99"/><ellipse class="cls-14" cx="62.41" cy="81.04" rx="13.37" ry="32.98"/><line class="cls-14" x1="62.41" y1="48.06" x2="62.41" y2="114.02"/><path class="cls-14" d="M28.86,62.43s25.9,10.07,60.16,0" transform="translate(2.23 5.05)"/><path class="cls-14" d="M89.09,89.68s-25.9-10.07-60.16,0" transform="translate(2.23 5.05)"/></g></g><g class="cls-16"><g class="cls-13"><path class="cls-2" d="M175.62,134.62H125a7.39,7.39,0,0,1-7.36-7.37V76.67A7.38,7.38,0,0,1,125,69.31h50.58A7.38,7.38,0,0,1,183,76.67v50.58A7.39,7.39,0,0,1,175.62,134.62Z" transform="translate(2.23 5.05)"/><circle class="cls-2" cx="151.59" cy="107.01" r="17.61"/><circle class="cls-2" cx="173.09" cy="84.75" r="3.71"/></g><g class="cls-13"><rect class="cls-2" x="202.61" y="85.89" width="77.37" height="48.84" rx="12"/><polyline class="cls-2" points="205.41 90.44 241.29 118.4 276.96 90.44"/></g><g class="cls-13"><rect class="cls-2" x="294.47" y="72.56" width="68.87" height="68.87" rx="12"/><text class="cls-17" transform="translate(301.99 129.24)">in</text></g><g class="cls-13"><circle class="cls-2" cx="73.31" cy="107.01" r="32.99"/><ellipse class="cls-2" cx="74.56" cy="107" rx="13.37" ry="32.98"/><line class="cls-2" x1="74.56" y1="74.02" x2="74.56" y2="139.98"/><path class="cls-2" d="M41,88.4s25.91,10.07,60.16,0" transform="translate(2.23 5.05)"/><path class="cls-2" d="M101.24,115.65s-25.9-10.08-60.16,0" transform="translate(2.23 5.05)"/></g></g><g class="cls-13"><path class="cls-18" d="M186.4,152.22H135.82a7.39,7.39,0,0,1-7.37-7.36V94.28a7.4,7.4,0,0,1,7.37-7.37H186.4a7.39,7.39,0,0,1,7.36,7.37v50.58A7.38,7.38,0,0,1,186.4,152.22Z" transform="translate(2.23 5.05)"/><circle class="cls-18" cx="162.37" cy="124.62" r="17.61"/><circle class="cls-18" cx="183.87" cy="102.36" r="3.71"/></g><g class="cls-13"><rect class="cls-18" x="213.39" y="103.5" width="77.37" height="48.84" rx="12"/><polyline class="cls-18" points="216.19 108.05 252.07 136.01 287.74 108.05"/></g><g class="cls-13"><rect class="cls-18" x="305.25" y="90.17" width="68.87" height="68.87" rx="12"/><text class="cls-19" transform="translate(312.77 146.85)">in</text></g><g class="cls-13"><circle class="cls-18" cx="84.09" cy="124.62" r="32.99"/><ellipse class="cls-18" cx="85.34" cy="124.61" rx="13.37" ry="32.98"/><line class="cls-18" x1="85.34" y1="91.63" x2="85.34" y2="157.58"/><path class="cls-18" d="M51.78,106s25.91,10.07,60.16,0" transform="translate(2.23 5.05)"/><path class="cls-18" d="M112,133.25s-25.91-10.07-60.16,0" transform="translate(2.23 5.05)"/></g></svg>